<svg id="svg" xmlns="http://www.w3.org/2000/svg" xmlns:xlink="http://www.w3.org/1999/xlink" width="400" height="175" viewBox="0, 0, 400,175"><g id="svgg"><path id="path0" d="M108.305 22.632 L 105.048 25.938 104.852 80.625 C 104.637 140.828,104.723 139.468,100.620 147.510 C 98.793 151.091,99.337 151.172,102.462 147.781 C 105.885 144.068,108.502 138.403,110.154 131.132 C 111.413 125.590,112.566 48.780,111.750 24.819 L 111.563 19.326 108.305 22.632 M198.281 22.654 L 195.000 25.977 195.000 68.926 L 195.000 111.875 202.031 111.979 C 217.232 112.205,220.078 111.772,222.741 108.829 L 223.917 107.529 225.693 109.024 C 229.916 112.578,238.483 112.937,241.860 109.702 L 243.742 107.899 245.152 109.143 C 248.717 112.286,255.738 112.930,259.439 110.454 C 263.224 107.922,263.691 105.284,263.723 86.273 L 263.750 69.734 260.678 72.761 L 257.605 75.787 257.396 88.987 C 257.140 105.110,256.210 107.313,250.637 105.005 C 246.805 103.418,246.250 100.807,246.250 84.357 L 246.250 69.734 243.187 72.751 L 240.124 75.768 239.906 88.694 C 239.720 99.685,239.525 101.867,238.598 103.280 C 236.523 106.446,231.673 106.074,228.436 102.500 C 227.269 101.212,227.175 100.093,227.000 85.457 L 226.813 69.792 223.406 73.156 L 220.000 76.520 220.000 88.603 C 220.000 105.462,219.893 105.625,208.795 105.625 L 201.884 105.625 201.723 62.478 L 201.563 19.332 198.281 22.654 M360.445 22.990 L 357.500 25.980 357.500 68.866 L 357.500 111.751 360.624 111.657 L 363.749 111.563 363.749 65.781 C 363.750 40.602,363.669 20.000,363.570 20.000 C 363.471 20.000,362.065 21.346,360.445 22.990 M91.086 31.099 L 88.157 34.073 87.985 68.270 C 87.816 101.847,87.789 102.489,86.525 103.753 C 84.510 105.768,81.293 106.018,79.143 104.327 C 75.625 101.560,75.625 101.556,75.625 67.385 L 75.625 35.980 72.188 39.375 L 68.750 42.770 68.750 72.370 L 68.750 101.971 66.923 103.798 C 61.915 108.807,56.829 103.726,52.800 89.688 C 48.467 74.589,43.059 70.677,25.781 70.143 L 16.250 69.848 16.250 77.597 C 16.250 101.823,21.207 111.003,34.688 111.739 C 41.702 112.121,44.646 111.196,48.251 107.475 L 51.189 104.442 52.524 106.602 C 56.355 112.800,68.078 113.844,71.704 108.310 L 72.689 106.806 75.113 109.173 C 80.105 114.047,89.617 112.494,93.123 106.231 L 94.688 103.438 94.867 65.781 C 94.965 45.070,94.814 28.125,94.531 28.125 C 94.247 28.125,92.697 29.463,91.086 31.099 M239.835 45.156 C 236.331 47.817,238.167 53.710,242.500 53.710 C 245.846 53.710,247.926 50.329,246.567 47.098 C 245.429 44.391,242.106 43.432,239.835 45.156 M234.572 54.366 C 231.677 55.561,230.998 59.583,233.322 61.766 C 237.478 65.671,243.825 60.057,240.156 55.721 C 238.847 54.173,236.449 53.591,234.572 54.366 M245.397 55.045 C 241.988 57.727,243.955 63.125,248.341 63.125 C 252.554 63.125,254.363 58.642,251.362 55.641 C 249.140 53.418,247.654 53.270,245.397 55.045 M343.594 72.966 L 340.625 75.980 340.620 92.521 C 340.618 101.619,340.323 110.866,339.965 113.071 C 335.153 142.728,290.938 138.267,290.938 108.125 C 290.938 93.936,299.055 84.744,313.281 82.824 C 317.449 82.262,316.982 81.250,312.556 81.250 C 289.833 81.250,276.603 109.540,290.608 128.179 C 303.378 145.174,334.265 142.533,343.707 123.638 C 346.681 117.687,346.909 115.275,346.729 91.695 L 346.563 69.952 343.594 72.966 M35.074 77.948 C 47.739 82.013,50.877 101.903,39.344 105.008 C 28.785 107.852,23.863 101.737,23.290 85.060 L 22.981 76.057 27.346 76.463 C 29.747 76.686,33.225 77.354,35.074 77.948 M162.188 83.114 C 152.963 85.176,149.815 95.388,156.172 102.629 C 158.318 105.073,157.892 105.594,153.727 105.616 C 152.645 105.622,151.153 106.644,149.039 108.826 L 145.938 112.026 151.875 111.650 C 155.955 111.392,161.488 110.325,169.562 108.239 L 181.312 105.204 184.424 102.139 C 188.316 98.306,188.134 98.260,177.415 100.373 L 168.607 102.110 165.835 100.639 C 155.859 95.347,159.589 84.668,170.323 87.789 C 174.479 88.997,175.635 88.569,173.721 86.532 C 171.134 83.778,166.010 82.259,162.188 83.114 M314.420 97.897 C 312.702 100.081,312.784 102.216,314.659 104.091 C 317.550 106.982,322.500 104.880,322.500 100.762 C 322.500 96.656,316.946 94.686,314.420 97.897 M356.374 115.421 C 352.499 117.330,351.412 121.737,354.045 124.865 C 355.701 126.833,355.561 127.495,353.490 127.508 C 352.694 127.512,351.638 128.363,350.776 129.695 L 349.364 131.875 352.887 131.875 C 361.485 131.875,373.125 127.416,373.125 124.122 C 373.125 123.491,369.844 123.724,366.563 124.588 C 361.536 125.911,357.969 124.396,357.969 120.938 C 357.969 117.810,361.610 116.559,365.938 118.201 C 367.582 118.824,366.943 117.072,365.064 115.806 C 362.557 114.117,359.311 113.973,356.374 115.421 M358.557 133.576 C 357.591 133.721,356.704 134.171,356.586 134.576 C 356.468 134.981,355.888 137.422,355.298 140.000 C 354.709 142.578,353.552 146.023,352.728 147.656 C 350.902 151.272,351.601 151.459,354.588 148.153 C 357.358 145.087,361.875 135.905,361.875 133.340 C 361.875 133.114,361.414 133.147,358.557 133.576 " stroke="none" fill="#000000" fill-rule="evenodd"></path></g></svg>